<?xml version="1.0" encoding="UTF-8"?>
<svg id="_レイヤー_2" data-name="レイヤー 2" xmlns="http://www.w3.org/2000/svg" viewBox="0 0 83.25 76.9">
  <defs>
    <style>
      .cls-1 {
        fill: none;
        stroke: #061f4b;
        stroke-miterlimit: 10;
        stroke-width: 2px;
      }
    </style>
  </defs>
  <g id="PC">
    <circle class="cls-1" cx="43.17" cy="43.08" r="4.69"/>
    <circle class="cls-1" cx="65.04" cy="43.08" r="4.69"/>
    <path class="cls-1" d="M54.11,75.89c-15.53,0-28.12-12.61-28.11-28.14,0-15.53,12.61-28.12,28.14-28.11,15.53,0,28.12,12.61,28.11,28.14,0,4.63-1.15,9.19-3.33,13.27l3.19,10.84c.49,1.66-.46,3.39-2.12,3.88-.57.17-1.19.17-1.76,0l-10.83-3.2c-4.08,2.19-8.65,3.33-13.28,3.32Z"/>
    <path class="cls-1" d="M27.57,57.1c-4.1-.22-8.1-1.34-11.72-3.28l-10.84,3.19c-1.66.49-3.39-.46-3.88-2.12-.17-.57-.17-1.19,0-1.76l3.18-10.83C-2.97,28.57,2.26,11.55,15.99,4.28c13.73-7.27,30.75-2.04,38.02,11.69.64,1.2,1.18,2.44,1.64,3.72"/>
  </g>
</svg>