<?xml version="1.0" encoding="UTF-8"?>
<svg id="_レイヤー_2" data-name="レイヤー 2" xmlns="http://www.w3.org/2000/svg" viewBox="0 0 64.5 84.25">
  <defs>
    <style>
      .cls-1 {
        fill: none;
        stroke: #061f4b;
        stroke-miterlimit: 10;
        stroke-width: 2px;
      }
    </style>
  </defs>
  <g id="PC">
    <line class="cls-1" x1="16.63" y1="83.25" x2="47.88" y2="83.25"/>
    <path class="cls-1" d="M12.99,56.87c-7.53-5.88-11.95-14.88-11.99-24.43C.91,15.5,14.56,1.4,31.5,1.01c17.25-.42,31.58,13.23,32,30.48.24,9.86-4.19,19.25-11.94,25.34-2.31,1.79-3.66,4.54-3.68,7.46v2.34c0,1.73-1.4,3.12-3.12,3.12h-25c-1.73,0-3.12-1.4-3.12-3.12v-2.34c0-2.9-1.34-5.64-3.63-7.42Z"/>
    <path class="cls-1" d="M35.38,14.5c7.81,1.32,14.3,7.81,15.62,15.62"/>
  </g>
</svg>